# xmcd
#
# Track frame offsets: 
#        150
#        15468
#        33705
#        46601
#        66027
#        79445
#        93244
#        106521
#        120447
#        135218
#        149538
#        164011
#        179938
#        197750
#        219233
#
# Disc length: 3168 seconds
#
# Revision: 1
# Processed by: cddbd v1.5.2PL0 Copyright (c) Steve Scherf et al.
# Submitted via: ExactAudioCopyFreeDBPlugin 1.0
#
DISCID=ca0c5e0f
DTITLE=黑鸭子 - DTS51在水一方
DYEAR=2009
DGENRE=DTS
TTITLE0=夜来香
TTITLE1=在水一方
TTITLE2=一封情书
TTITLE3=我只在乎你
TTITLE4=海韵
TTITLE5=又见炊烟
TTITLE6=奈何
TTITLE7=小村之恋
TTITLE8=情人的关怀
TTITLE9=千言万语
TTITLE10=难忘的初恋情人
TTITLE11=南海姑娘
TTITLE12=何日君再来
TTITLE13=甜蜜蜜
TTITLE14=我只在乎你(伴奏版)
EXTD=
EXTT0=
EXTT1=
EXTT2=
EXTT3=
EXTT4=
EXTT5=
EXTT6=
EXTT7=
EXTT8=
EXTT9=
EXTT10=
EXTT11=
EXTT12=
EXTT13=
EXTT14=
PLAYORDER=
